<svg xmlns="http://www.w3.org/2000/svg" viewBox="0 0 599.92 196.79"><defs><style>.cls-1{fill:#fff;}</style></defs><g id="Layer_2" data-name="Layer 2"><g id="Layer_1-2" data-name="Layer 1"><path class="cls-1" d="M11.21,184.35Q0,171.92,0,148.68V137.75H28.42v13.12q0,18.58,15.58,18.59,7.65,0,11.62-4.51t4-14.63a40.59,40.59,0,0,0-5.46-21.18q-5.48-9.15-20.23-22-18.58-16.4-26-29.65A60.5,60.5,0,0,1,.55,47.56Q.55,24.87,12,12.44T45.37,0Q67,0,78,12.44T89.1,48.1V56H60.68V46.19q0-9.84-3.83-14.35T45.64,27.33q-15,0-15,18.31a36.16,36.16,0,0,0,5.6,19.41q5.61,9,20.37,21.86,18.86,16.41,26,29.8t7.11,31.43q0,23.51-11.62,36.07T44.28,196.79Q22.41,196.79,11.21,184.35Z"/><path class="cls-1" d="M130.37,30.06H98.94V2.73h92.93V30.06H160.44v164H130.37Z"/><path class="cls-1" d="M206.35,2.73H250.9q23.23,0,33.89,10.8t10.66,33.21V58.49q0,29.79-19.68,37.72v.54a23.51,23.51,0,0,1,15.45,13.4q4.5,10.11,4.51,27v33.62a130.14,130.14,0,0,0,.54,13.26,33.35,33.35,0,0,0,2.74,10H268.4a43,43,0,0,1-2.19-8.74,130.13,130.13,0,0,1-.55-14.76v-35q0-13.11-4.23-18.31t-14.63-5.19H236.42v82H206.35Zm41,82q9,0,13.53-4.65t4.51-15.58V49.74q0-10.38-3.69-15c-2.46-3.09-6.33-4.65-11.62-4.65H236.42V84.73Z"/><path class="cls-1" d="M538.43,30.06H507V2.73h92.92V30.06H568.49v164H538.43Z"/><rect class="cls-1" x="316.5" y="2.73" width="181.21" height="27.33"/><rect class="cls-1" x="316.5" y="80.49" width="181.21" height="27.33"/><rect class="cls-1" x="316.5" y="166.72" width="181.21" height="27.33"/></g></g></svg>